<?xml version="1.0"?>
<svg xmlns="http://www.w3.org/2000/svg" id="Layer_3" enable-background="new 0 0 64 64" height="512px" viewBox="0 0 64 64" width="512px" class=""><g><path d="m25.101 12.428c-1.533-.559-2.638-1.875-2.979-3.428h.878c.552 0 1-.447 1-1v-6c0-.553-.448-1-1-1h-12c-.552 0-1 .447-1 1v6c0 .553.448 1 1 1h.878c-.341 1.553-1.446 2.869-2.979 3.428-4.725 1.717-7.899 6.249-7.899 11.277v4.295c0 .771.301 1.468.78 2-.479.532-.78 1.229-.78 2v4c0 .771.301 1.468.78 2-.479.532-.78 1.229-.78 2v4c0 .771.301 1.468.78 2-.479.532-.78 1.229-.78 2v4c0 .771.301 1.468.78 2-.479.532-.78 1.229-.78 2v2c0 2.757 2.243 5 5 5h22c2.757 0 5-2.243 5-5v-2c0-.771-.301-1.468-.78-2 .48-.532.78-1.229.78-2v-4c0-.771-.301-1.468-.78-2 .48-.532.78-1.229.78-2v-4c0-.771-.301-1.468-.78-2 .48-.532.78-1.229.78-2v-4c0-.771-.301-1.468-.78-2 .48-.532.78-1.229.78-2v-4.295c0-5.028-3.174-9.56-7.899-11.277zm-13.101-9.428h10v4h-10zm19 29v4c0 .552-.449 1-1 1h-26c-.551 0-1-.448-1-1v-4c0-.552.449-1 1-1h26c.551 0 1 .448 1 1zm0 8v4c0 .552-.449 1-1 1h-26c-.551 0-1-.448-1-1v-4c0-.552.449-1 1-1h26c.551 0 1 .448 1 1zm0 8v4c0 .552-.449 1-1 1h-26c-.551 0-1-.448-1-1v-4c0-.552.449-1 1-1h26c.551 0 1 .448 1 1zm0 10c0 1.654-1.346 3-3 3h-22c-1.654 0-3-1.346-3-3v-2c0-.552.449-1 1-1h26c.551 0 1 .448 1 1zm0-30c0 .552-.449 1-1 1h-26c-.551 0-1-.448-1-1v-4.295c0-4.19 2.645-7.967 6.583-9.398 2.324-.845 3.975-2.909 4.339-5.307h6.157c.364 2.397 2.015 4.461 4.339 5.307 3.937 1.431 6.582 5.208 6.582 9.398z" data-original="#000000" class="active-path" data-old_color="#000000" fill="#FFFFFF"/><path d="m17.832 13.445c-.371-.557-1.293-.557-1.664 0l-2.891 4.336c-.835 1.254-1.277 2.713-1.277 4.219 0 2.757 2.243 5 5 5s5-2.243 5-5c0-1.506-.442-2.965-1.277-4.219zm-.832 11.555c-1.654 0-3-1.346-3-3 0-1.11.326-2.186.941-3.109l2.059-3.088 2.059 3.088c.615.923.941 1.999.941 3.109 0 1.654-1.346 3-3 3z" data-original="#000000" class="active-path" data-old_color="#000000" fill="#FFFFFF"/><path d="m62.732 33.318c-.19-.203-.454-.318-.732-.318h-26c-.278 0-.542.115-.732.318-.189.203-.285.476-.266.753l2 28c.038.524.474.929.998.929h22c.524 0 .96-.405.998-.929l2-28c.019-.277-.077-.55-.266-.753zm-23.801 27.682-.143-2h20.423l-.143 2zm20.424-4h-20.71l-1.571-22h23.852z" data-original="#000000" class="active-path" data-old_color="#000000" fill="#FFFFFF"/></g> </svg>
